<?xml version="1.0" encoding="iso-8859-1"?>
<!-- Generator: Adobe Illustrator 19.0.0, SVG Export Plug-In . SVG Version: 6.00 Build 0)  -->
<svg version="1.1" id="Capa_1" xmlns="http://www.w3.org/2000/svg" xmlns:xlink="http://www.w3.org/1999/xlink" x="0px" y="0px"
	 viewBox="0 0 511.999 511.999" style="enable-background:new 0 0 511.999 511.999;" xml:space="preserve">
<g>
	<g>
		<path d="M472.043,148.946H270.996V51.978c0-8.282-6.714-14.996-14.996-14.996s-14.996,6.714-14.996,14.996v96.968H39.956
			C17.925,148.946,0,166.871,0,188.903V394.16c0,44.585,36.273,80.857,80.857,80.857h350.284c44.585,0,80.857-36.272,80.857-80.857
			V188.903C512,166.871,494.074,148.946,472.043,148.946z M431.143,445.026H80.857c-28.046,0-50.865-22.818-50.865-50.865V188.903
			c0-5.495,4.47-9.965,9.964-9.965h201.046v84.591l-19.466-19.466c-5.856-5.857-15.351-5.857-21.208,0
			c-5.857,5.857-5.857,15.351,0,21.208l44.033,44.033c2.749,3.381,6.939,5.544,11.636,5.544c4.697,0,8.887-2.163,11.636-5.544
			l43.094-43.094c5.857-5.856,5.857-15.351,0-21.208c-5.857-5.856-15.351-5.857-21.208,0l-18.526,18.526v-84.593H472.04
			c5.495,0,9.965,4.47,9.965,9.965v205.259h0.003C482.007,422.208,459.189,445.026,431.143,445.026z"/>
	</g>
</g>
<g>
	<g>
		<path d="M378.316,318.033h-61.108c-8.282,0-14.996,6.714-14.996,14.996c0,25.482-20.731,46.213-46.213,46.213
			s-46.213-20.731-46.213-46.213c0-8.282-6.714-14.996-14.996-14.996h-61.108c-8.282,0-14.996,6.714-14.996,14.996
			s6.714,14.996,14.996,14.996h47.602c6.986,34.863,37.829,61.209,74.716,61.209s67.73-26.347,74.716-61.209h47.602
			c8.282,0,14.996-6.714,14.996-14.996S386.598,318.033,378.316,318.033z"/>
	</g>
</g>
<g>
</g>
<g>
</g>
<g>
</g>
<g>
</g>
<g>
</g>
<g>
</g>
<g>
</g>
<g>
</g>
<g>
</g>
<g>
</g>
<g>
</g>
<g>
</g>
<g>
</g>
<g>
</g>
<g>
</g>
</svg>
