<svg id="Capa_1" enable-background="new 0 0 512.011 512.011" height="512" viewBox="0 0 512.011 512.011" width="512" xmlns="http://www.w3.org/2000/svg"><g><path d="m447.257 304.893-85.619 60.72c-2.641-19.516-19.41-34.607-39.638-34.607h-10.26c-41.289 0-81.111-10.302-128.2-25.771-8.544-2.807-17.474-4.229-26.541-4.229-25.276 0-48.624 10.871-64.819 30h-82.18c-5.523 0-10 4.478-10 10v90c0 5.522 4.477 10 10 10 36.662 0 72.959 10.311 111.388 21.226 41.148 11.688 83.698 23.774 129.702 23.774 86.088 0 127.671-23.865 245.896-118.451 17.27-13.812 20.062-38.963 6.241-56.228-13.713-17.132-38.76-19.985-55.97-6.434zm37.236 47.044c-119.925 95.946-157.008 114.069-233.403 114.069-43.218 0-84.406-11.699-124.237-23.014-36.43-10.347-71.013-20.17-106.853-21.762v-70.225h76.99c3.145 0 6.106-1.479 7.995-3.993 12.419-16.527 31.377-26.007 52.015-26.007 6.942 0 13.772 1.087 20.299 3.231 48.914 16.067 90.495 26.769 134.441 26.769h10.26c11.028 0 20 8.972 20 20 0 10.867-8.739 20-20 20h-121.5c-5.523 0-10 4.478-10 10s4.477 10 10 10h121.5c11.994 0 23.453-5.492 31.017-14.759 110.72-78.529 106.046-75.188 106.489-75.542 8.606-6.887 21.218-5.487 28.108 3.121 6.91 8.632 5.515 21.204-3.121 28.112z"/><circle cx="342" cy="276.006" r="10"/><path d="m392 76.006c0-27.57-22.43-50-50-50s-50 22.43-50 50 22.43 50 50 50 50-22.43 50-50zm-50 30c-16.542 0-30-13.458-30-30s13.458-30 30-30 30 13.458 30 30-13.458 30-30 30z"/><path d="m252 216.006v60c0 5.522 4.478 10 10 10h35c5.522 0 10-4.478 10-10s-4.478-10-10-10h-25v-50c0-38.598 31.402-70 70-70s70 31.402 70 70v50h-25c-5.522 0-10 4.478-10 10s4.478 10 10 10h35c5.522 0 10-4.478 10-10v-60c0-49.626-40.374-90-90-90s-90 40.374-90 90z"/></g></svg>